<svg width="245" height="50" viewBox="0 0 445 133" fill="none" xmlns="http://www.w3.org/2000/svg">
<rect width="245" height="50" fill="white"/>
<rect x="34" y="36.4232" width="114" height="56.8423" fill="#C5A83C"/>
<path d="M61.5455 88H45.0455V41.4545H61.6818C66.3636 41.4545 70.3939 42.3864 73.7727 44.25C77.1515 46.0985 79.75 48.7576 81.5682 52.2273C83.4015 55.697 84.3182 59.8485 84.3182 64.6818C84.3182 69.5303 83.4015 73.697 81.5682 77.1818C79.75 80.6667 77.1364 83.3409 73.7273 85.2045C70.3333 87.0682 66.2727 88 61.5455 88ZM54.8864 79.5682H61.1364C64.0455 79.5682 66.4924 79.053 68.4773 78.0227C70.4773 76.9773 71.9773 75.3636 72.9773 73.1818C73.9924 70.9848 74.5 68.1515 74.5 64.6818C74.5 61.2424 73.9924 58.4318 72.9773 56.25C71.9773 54.0682 70.4848 52.4621 68.5 51.4318C66.5152 50.4015 64.0682 49.8864 61.1591 49.8864H54.8864V79.5682ZM101.108 41.4545V88H91.4261V41.4545H101.108ZM125.977 88.6364C122.583 88.6364 119.561 88.053 116.909 86.8864C114.273 85.7045 112.189 84.0833 110.659 82.0227C109.144 79.947 108.364 77.553 108.318 74.8409H118.227C118.288 75.9773 118.659 76.9773 119.341 77.8409C120.038 78.6894 120.962 79.3485 122.114 79.8182C123.265 80.2879 124.561 80.5227 126 80.5227C127.5 80.5227 128.826 80.2576 129.977 79.7273C131.129 79.197 132.03 78.4621 132.682 77.5227C133.333 76.5833 133.659 75.5 133.659 74.2727C133.659 73.0303 133.311 71.9318 132.614 70.9773C131.932 70.0076 130.947 69.25 129.659 68.7045C128.386 68.1591 126.871 67.8864 125.114 67.8864H120.773V60.6591H125.114C126.598 60.6591 127.909 60.4015 129.045 59.8864C130.197 59.3712 131.091 58.6591 131.727 57.75C132.364 56.8258 132.682 55.75 132.682 54.5227C132.682 53.3561 132.402 52.3333 131.841 51.4545C131.295 50.5606 130.523 49.8636 129.523 49.3636C128.538 48.8636 127.386 48.6136 126.068 48.6136C124.735 48.6136 123.515 48.8561 122.409 49.3409C121.303 49.8106 120.417 50.4848 119.75 51.3636C119.083 52.2424 118.727 53.2727 118.682 54.4545H109.25C109.295 51.7727 110.061 49.4091 111.545 47.3636C113.03 45.3182 115.03 43.7197 117.545 42.5682C120.076 41.4015 122.932 40.8182 126.114 40.8182C129.326 40.8182 132.136 41.4015 134.545 42.5682C136.955 43.7348 138.826 45.3106 140.159 47.2955C141.508 49.2652 142.174 51.4773 142.159 53.9318C142.174 56.5379 141.364 58.7121 139.727 60.4545C138.106 62.197 135.992 63.303 133.386 63.7727V64.1364C136.811 64.5758 139.417 65.7652 141.205 67.7045C143.008 69.6288 143.902 72.0379 143.886 74.9318C143.902 77.5833 143.136 79.9394 141.591 82C140.061 84.0606 137.947 85.6818 135.25 86.8636C132.553 88.0455 129.462 88.6364 125.977 88.6364ZM166.045 88V41.4545H175.886V61.9773H176.5L193.25 41.4545H205.045L187.773 62.2955L205.25 88H193.477L180.727 68.8636L175.886 74.7727V88H166.045ZM223.335 88.6818C219.744 88.6818 216.653 87.9545 214.062 86.5C211.487 85.0303 209.502 82.9545 208.108 80.2727C206.714 77.5758 206.017 74.3864 206.017 70.7045C206.017 67.1136 206.714 63.9621 208.108 61.25C209.502 58.5379 211.464 56.4242 213.994 54.9091C216.54 53.3939 219.525 52.6364 222.949 52.6364C225.252 52.6364 227.396 53.0076 229.381 53.75C231.381 54.4773 233.123 55.5758 234.608 57.0455C236.108 58.5152 237.275 60.3636 238.108 62.5909C238.941 64.803 239.358 67.3939 239.358 70.3636V73.0227H209.881V67.0227H230.244C230.244 65.6288 229.941 64.3939 229.335 63.3182C228.729 62.2424 227.888 61.4015 226.812 60.7955C225.752 60.1742 224.517 59.8636 223.108 59.8636C221.638 59.8636 220.335 60.2045 219.199 60.8864C218.078 61.553 217.199 62.4545 216.562 63.5909C215.926 64.7121 215.6 65.9621 215.585 67.3409V73.0455C215.585 74.7727 215.903 76.2652 216.54 77.5227C217.191 78.7803 218.108 79.75 219.29 80.4318C220.472 81.1136 221.873 81.4545 223.494 81.4545C224.57 81.4545 225.555 81.303 226.449 81C227.343 80.697 228.108 80.2424 228.744 79.6364C229.381 79.0303 229.866 78.2879 230.199 77.4091L239.153 78C238.699 80.1515 237.767 82.0303 236.358 83.6364C234.964 85.2273 233.161 86.4697 230.949 87.3636C228.752 88.2424 226.214 88.6818 223.335 88.6818ZM245.676 88V53.0909H255.062V59.1818H255.426C256.063 57.0152 257.131 55.3788 258.631 54.2727C260.131 53.1515 261.858 52.5909 263.812 52.5909C264.297 52.5909 264.82 52.6212 265.381 52.6818C265.941 52.7424 266.434 52.8258 266.858 52.9318V61.5227C266.403 61.3864 265.775 61.2652 264.972 61.1591C264.169 61.053 263.434 61 262.767 61C261.343 61 260.07 61.3106 258.949 61.9318C257.843 62.5379 256.964 63.3864 256.312 64.4773C255.676 65.5682 255.358 66.8258 255.358 68.25V88H245.676ZM300.909 63.0455L292.045 63.5909C291.894 62.8333 291.568 62.1515 291.068 61.5455C290.568 60.9242 289.909 60.4318 289.091 60.0682C288.288 59.6894 287.326 59.5 286.205 59.5C284.705 59.5 283.439 59.8182 282.409 60.4545C281.379 61.0758 280.864 61.9091 280.864 62.9545C280.864 63.7879 281.197 64.4924 281.864 65.0682C282.53 65.6439 283.674 66.1061 285.295 66.4545L291.614 67.7273C295.008 68.4242 297.538 69.5455 299.205 71.0909C300.871 72.6364 301.705 74.6667 301.705 77.1818C301.705 79.4697 301.03 81.4773 299.682 83.2045C298.348 84.9318 296.515 86.2803 294.182 87.25C291.864 88.2045 289.189 88.6818 286.159 88.6818C281.538 88.6818 277.856 87.7197 275.114 85.7955C272.386 83.8561 270.788 81.2197 270.318 77.8864L279.841 77.3864C280.129 78.7955 280.826 79.8712 281.932 80.6136C283.038 81.3409 284.455 81.7045 286.182 81.7045C287.879 81.7045 289.242 81.3788 290.273 80.7273C291.318 80.0606 291.848 79.2045 291.864 78.1591C291.848 77.2803 291.477 76.5606 290.75 76C290.023 75.4242 288.902 74.9848 287.386 74.6818L281.341 73.4773C277.932 72.7955 275.394 71.6136 273.727 69.9318C272.076 68.25 271.25 66.1061 271.25 63.5C271.25 61.2576 271.856 59.3258 273.068 57.7045C274.295 56.0833 276.015 54.8333 278.227 53.9545C280.455 53.0758 283.061 52.6364 286.045 52.6364C290.455 52.6364 293.924 53.5682 296.455 55.4318C299 57.2955 300.485 59.8333 300.909 63.0455ZM317.483 67.8182V88H307.801V41.4545H317.21V59.25H317.619C318.407 57.1894 319.68 55.5758 321.438 54.4091C323.195 53.2273 325.4 52.6364 328.051 52.6364C330.475 52.6364 332.589 53.1667 334.392 54.2273C336.21 55.2727 337.619 56.7803 338.619 58.75C339.634 60.7045 340.134 63.0455 340.119 65.7727V88H330.438V67.5C330.453 65.3485 329.907 63.6742 328.801 62.4773C327.71 61.2803 326.18 60.6818 324.21 60.6818C322.892 60.6818 321.725 60.9621 320.71 61.5227C319.71 62.0833 318.922 62.9015 318.347 63.9773C317.786 65.0379 317.498 66.3182 317.483 67.8182ZM356.511 77.9545L356.534 66.3409H357.943L369.125 53.0909H380.239L365.216 70.6364H362.92L356.511 77.9545ZM347.739 88V41.4545H357.42V88H347.739ZM369.557 88L359.284 72.7955L365.739 65.9545L380.898 88H369.557Z" fill="#18181B"/>
</svg>
